<mxfile host="app.diagrams.net" agent="Mozilla/5.0 (Macintosh; Intel Mac OS X 10_15_7) AppleWebKit/537.36 (KHTML, like Gecko) Chrome/135.0.0.0 Safari/537.36" version="26.2.14">
  <diagram name="Page-1" id="8psTu5joOEkHxSPbt8DS">
    <mxGraphModel dx="3192" dy="2634" grid="1" gridSize="10" guides="1" tooltips="1" connect="1" arrows="1" fold="1" page="1" pageScale="1" pageWidth="827" pageHeight="1169" math="0" shadow="0">
      <root>
        <mxCell id="0" />
        <mxCell id="1" parent="0" />
        <mxCell id="5wcGb58u3SQSDJ49Bvyi-14" value="" style="edgeStyle=orthogonalEdgeStyle;rounded=0;orthogonalLoop=1;jettySize=auto;html=1;strokeWidth=3;" parent="1" edge="1">
          <mxGeometry relative="1" as="geometry">
            <mxPoint x="169" y="199" as="targetPoint" />
            <mxPoint x="129" y="199.24999999999955" as="sourcePoint" />
          </mxGeometry>
        </mxCell>
        <mxCell id="5wcGb58u3SQSDJ49Bvyi-1" value="&lt;font style=&quot;font-size: 18px;&quot;&gt;AXI STREAM&lt;/font&gt;&lt;div&gt;&lt;font size=&quot;3&quot;&gt;Interface&lt;/font&gt;&lt;/div&gt;&lt;div&gt;&lt;font size=&quot;3&quot;&gt;(Slave)&lt;/font&gt;&lt;/div&gt;" style="rounded=0;whiteSpace=wrap;html=1;" parent="1" vertex="1">
          <mxGeometry x="48" y="132.87" width="80" height="137.5" as="geometry" />
        </mxCell>
        <mxCell id="5wcGb58u3SQSDJ49Bvyi-13" value="" style="edgeStyle=orthogonalEdgeStyle;rounded=0;orthogonalLoop=1;jettySize=auto;html=1;strokeWidth=3;" parent="1" edge="1">
          <mxGeometry relative="1" as="geometry">
            <mxPoint x="364" y="200" as="targetPoint" />
            <mxPoint x="284" y="200" as="sourcePoint" />
          </mxGeometry>
        </mxCell>
        <mxCell id="5wcGb58u3SQSDJ49Bvyi-4" value="&lt;font style=&quot;font-size: 18px;&quot;&gt;Grayscale conversion&lt;/font&gt;" style="whiteSpace=wrap;html=1;" parent="1" vertex="1">
          <mxGeometry x="170.37" y="140" width="120" height="105" as="geometry" />
        </mxCell>
        <mxCell id="5wcGb58u3SQSDJ49Bvyi-6" value="&lt;span style=&quot;font-size: 18px;&quot;&gt;Background&lt;/span&gt;&lt;br&gt;&lt;div&gt;&lt;font size=&quot;3&quot;&gt;&amp;nbsp;Buffer&lt;/font&gt;&lt;/div&gt;" style="rounded=0;whiteSpace=wrap;html=1;" parent="1" vertex="1">
          <mxGeometry x="728" y="362" width="120" height="100" as="geometry" />
        </mxCell>
        <mxCell id="5wcGb58u3SQSDJ49Bvyi-7" value="&lt;span style=&quot;background-color: transparent; color: light-dark(rgb(0, 0, 0), rgb(255, 255, 255)); font-size: 18px;&quot;&gt;Variation&lt;/span&gt;&lt;div&gt;&lt;span style=&quot;font-size: medium; background-color: transparent; color: light-dark(rgb(0, 0, 0), rgb(255, 255, 255));&quot;&gt;&amp;nbsp;Buffer&lt;/span&gt;&lt;/div&gt;" style="rounded=0;whiteSpace=wrap;html=1;" parent="1" vertex="1">
          <mxGeometry x="728" y="478" width="120" height="100" as="geometry" />
        </mxCell>
        <mxCell id="5wcGb58u3SQSDJ49Bvyi-8" value="&lt;font style=&quot;font-size: 24px;&quot;&gt;AXI MEM (Master)&lt;/font&gt;" style="whiteSpace=wrap;html=1;" parent="1" vertex="1">
          <mxGeometry x="60" y="-50" width="1580" height="60" as="geometry" />
        </mxCell>
        <mxCell id="5wcGb58u3SQSDJ49Bvyi-10" value="&lt;span style=&quot;font-size: 18px;&quot;&gt;Gt-1&lt;/span&gt;&lt;div&gt;&lt;span style=&quot;font-size: 18px;&quot;&gt;Frame buffer&lt;/span&gt;&lt;/div&gt;" style="rounded=0;whiteSpace=wrap;html=1;" parent="1" vertex="1">
          <mxGeometry x="580" y="221.25" width="120" height="100" as="geometry" />
        </mxCell>
        <mxCell id="5wcGb58u3SQSDJ49Bvyi-26" value="" style="edgeStyle=orthogonalEdgeStyle;rounded=0;orthogonalLoop=1;jettySize=auto;html=1;strokeWidth=3;" parent="1" source="5wcGb58u3SQSDJ49Bvyi-16" target="5wcGb58u3SQSDJ49Bvyi-25" edge="1">
          <mxGeometry relative="1" as="geometry" />
        </mxCell>
        <mxCell id="5wcGb58u3SQSDJ49Bvyi-16" value="&lt;font style=&quot;font-size: 18px;&quot;&gt;Motion Detection&lt;/font&gt;" style="whiteSpace=wrap;html=1;" parent="1" vertex="1">
          <mxGeometry x="920" y="120" width="91" height="460" as="geometry" />
        </mxCell>
        <mxCell id="5wcGb58u3SQSDJ49Bvyi-23" value="" style="endArrow=classic;html=1;rounded=0;strokeWidth=3;" parent="1" edge="1">
          <mxGeometry width="50" height="50" relative="1" as="geometry">
            <mxPoint x="87.37" y="133" as="sourcePoint" />
            <mxPoint x="87" y="10" as="targetPoint" />
          </mxGeometry>
        </mxCell>
        <mxCell id="5wcGb58u3SQSDJ49Bvyi-30" value="" style="edgeStyle=orthogonalEdgeStyle;rounded=0;orthogonalLoop=1;jettySize=auto;html=1;strokeWidth=3;" parent="1" source="5wcGb58u3SQSDJ49Bvyi-25" edge="1">
          <mxGeometry relative="1" as="geometry">
            <mxPoint x="1313" y="349.75" as="targetPoint" />
          </mxGeometry>
        </mxCell>
        <mxCell id="5wcGb58u3SQSDJ49Bvyi-25" value="&lt;font style=&quot;font-size: 24px;&quot;&gt;3x3 Box Filter&lt;/font&gt;" style="rounded=0;whiteSpace=wrap;html=1;" parent="1" vertex="1">
          <mxGeometry x="1070" y="275" width="163" height="150" as="geometry" />
        </mxCell>
        <mxCell id="5wcGb58u3SQSDJ49Bvyi-29" value="" style="endArrow=classic;html=1;rounded=0;strokeWidth=3;exitX=0.846;exitY=1.044;exitDx=0;exitDy=0;exitPerimeter=0;" parent="1" edge="1" source="5wcGb58u3SQSDJ49Bvyi-8">
          <mxGeometry width="50" height="50" relative="1" as="geometry">
            <mxPoint x="1390" y="110" as="sourcePoint" />
            <mxPoint x="1400" y="270" as="targetPoint" />
          </mxGeometry>
        </mxCell>
        <mxCell id="5wcGb58u3SQSDJ49Bvyi-32" value="" style="endArrow=classic;startArrow=classic;html=1;rounded=0;exitX=0.5;exitY=1;exitDx=0;exitDy=0;strokeWidth=3;" parent="1" source="5wcGb58u3SQSDJ49Bvyi-1" edge="1">
          <mxGeometry width="50" height="50" relative="1" as="geometry">
            <mxPoint x="410" y="490" as="sourcePoint" />
            <mxPoint x="240" y="640" as="targetPoint" />
            <Array as="points">
              <mxPoint x="88" y="440" />
              <mxPoint x="240" y="440" />
            </Array>
          </mxGeometry>
        </mxCell>
        <mxCell id="5wcGb58u3SQSDJ49Bvyi-43" value="" style="shape=flexArrow;endArrow=classic;startArrow=classic;html=1;rounded=0;entryX=0;entryY=0.5;entryDx=0;entryDy=0;" parent="1" edge="1">
          <mxGeometry width="100" height="100" relative="1" as="geometry">
            <mxPoint x="-42" y="200" as="sourcePoint" />
            <mxPoint x="48" y="201.25" as="targetPoint" />
          </mxGeometry>
        </mxCell>
        <mxCell id="5wcGb58u3SQSDJ49Bvyi-44" value="" style="shape=flexArrow;endArrow=classic;startArrow=classic;html=1;rounded=0;" parent="1" edge="1">
          <mxGeometry width="100" height="100" relative="1" as="geometry">
            <mxPoint x="-60" y="673" as="sourcePoint" />
            <mxPoint x="50" y="672.56" as="targetPoint" />
            <Array as="points">
              <mxPoint x="10" y="672.56" />
            </Array>
          </mxGeometry>
        </mxCell>
        <mxCell id="5wcGb58u3SQSDJ49Bvyi-45" value="" style="shape=flexArrow;endArrow=classic;startArrow=classic;html=1;rounded=0;entryX=0;entryY=0.5;entryDx=0;entryDy=0;" parent="1" edge="1">
          <mxGeometry width="100" height="100" relative="1" as="geometry">
            <mxPoint x="1643" y="358.75" as="sourcePoint" />
            <mxPoint x="1733" y="359.75" as="targetPoint" />
          </mxGeometry>
        </mxCell>
        <mxCell id="5wcGb58u3SQSDJ49Bvyi-49" value="" style="shape=flexArrow;endArrow=classic;startArrow=classic;html=1;rounded=0;" parent="1" edge="1">
          <mxGeometry width="100" height="100" relative="1" as="geometry">
            <mxPoint x="1640" y="-20.629999999999995" as="sourcePoint" />
            <mxPoint x="1730" y="-19.960000000000008" as="targetPoint" />
          </mxGeometry>
        </mxCell>
        <mxCell id="82p9OovAjXmLQtIsP7t_-12" value="&lt;span style=&quot;font-size: 18px;&quot;&gt;Sigma-Delta&lt;/span&gt;&lt;div&gt;&lt;span style=&quot;font-size: 18px;&quot;&gt;Update&lt;/span&gt;&lt;/div&gt;" style="rounded=0;whiteSpace=wrap;html=1;" parent="1" vertex="1">
          <mxGeometry x="572" y="355" width="120" height="230" as="geometry" />
        </mxCell>
        <mxCell id="82p9OovAjXmLQtIsP7t_-13" value="" style="endArrow=classic;startArrow=classic;html=1;rounded=0;exitX=1;exitY=0.75;exitDx=0;exitDy=0;entryX=0;entryY=0.5;entryDx=0;entryDy=0;strokeWidth=3;" parent="1" source="82p9OovAjXmLQtIsP7t_-12" target="5wcGb58u3SQSDJ49Bvyi-7" edge="1">
          <mxGeometry width="50" height="50" relative="1" as="geometry">
            <mxPoint x="688" y="675" as="sourcePoint" />
            <mxPoint x="723" y="675" as="targetPoint" />
          </mxGeometry>
        </mxCell>
        <mxCell id="82p9OovAjXmLQtIsP7t_-14" value="" style="endArrow=classic;startArrow=classic;html=1;rounded=0;exitX=1;exitY=0.25;exitDx=0;exitDy=0;entryX=0;entryY=0.5;entryDx=0;entryDy=0;strokeWidth=3;" parent="1" source="82p9OovAjXmLQtIsP7t_-12" target="5wcGb58u3SQSDJ49Bvyi-6" edge="1">
          <mxGeometry width="50" height="50" relative="1" as="geometry">
            <mxPoint x="698" y="735" as="sourcePoint" />
            <mxPoint x="733" y="735" as="targetPoint" />
          </mxGeometry>
        </mxCell>
        <mxCell id="82p9OovAjXmLQtIsP7t_-15" value="" style="edgeStyle=orthogonalEdgeStyle;rounded=0;orthogonalLoop=1;jettySize=auto;html=1;strokeWidth=3;entryX=0;entryY=0.5;entryDx=0;entryDy=0;" parent="1" target="82p9OovAjXmLQtIsP7t_-12" edge="1">
          <mxGeometry relative="1" as="geometry">
            <mxPoint x="470" y="320" as="targetPoint" />
            <mxPoint x="330" y="200" as="sourcePoint" />
            <Array as="points">
              <mxPoint x="330" y="470" />
            </Array>
          </mxGeometry>
        </mxCell>
        <mxCell id="82p9OovAjXmLQtIsP7t_-16" value="" style="edgeStyle=orthogonalEdgeStyle;rounded=0;orthogonalLoop=1;jettySize=auto;html=1;strokeWidth=3;" parent="1" edge="1">
          <mxGeometry relative="1" as="geometry">
            <mxPoint x="920" y="410" as="targetPoint" />
            <mxPoint x="850" y="410" as="sourcePoint" />
          </mxGeometry>
        </mxCell>
        <mxCell id="82p9OovAjXmLQtIsP7t_-17" value="" style="edgeStyle=orthogonalEdgeStyle;rounded=0;orthogonalLoop=1;jettySize=auto;html=1;strokeWidth=3;" parent="1" edge="1">
          <mxGeometry relative="1" as="geometry">
            <mxPoint x="918" y="525" as="targetPoint" />
            <mxPoint x="848" y="525" as="sourcePoint" />
          </mxGeometry>
        </mxCell>
        <mxCell id="82p9OovAjXmLQtIsP7t_-18" value="&lt;font style=&quot;font-size: 24px;&quot;&gt;Motion Overlay&lt;/font&gt;" style="rounded=0;whiteSpace=wrap;html=1;" parent="1" vertex="1">
          <mxGeometry x="1313" y="275" width="163" height="150" as="geometry" />
        </mxCell>
        <mxCell id="5wcGb58u3SQSDJ49Bvyi-28" value="&lt;font style=&quot;font-size: 18px;&quot;&gt;AXI STREAM&lt;/font&gt;&lt;div&gt;&lt;font size=&quot;3&quot;&gt;Interface&lt;/font&gt;&lt;/div&gt;&lt;div&gt;&lt;font size=&quot;3&quot;&gt;(Master)&lt;/font&gt;&lt;/div&gt;" style="rounded=0;whiteSpace=wrap;html=1;" parent="1" vertex="1">
          <mxGeometry x="1563" y="281.2499999999999" width="80" height="143.75" as="geometry" />
        </mxCell>
        <mxCell id="82p9OovAjXmLQtIsP7t_-20" value="" style="edgeStyle=orthogonalEdgeStyle;rounded=0;orthogonalLoop=1;jettySize=auto;html=1;strokeWidth=3;" parent="1" edge="1">
          <mxGeometry relative="1" as="geometry">
            <mxPoint x="1477" y="359.75" as="sourcePoint" />
            <mxPoint x="1557" y="359.75" as="targetPoint" />
          </mxGeometry>
        </mxCell>
        <mxCell id="1Rf1SUsvrOOBmwsHc8l4-2" value="&lt;span style=&quot;font-size: 18px;&quot;&gt;Gt&lt;/span&gt;&lt;div&gt;&lt;span style=&quot;font-size: 18px;&quot;&gt;Frame buffer&lt;/span&gt;&lt;/div&gt;" style="rounded=0;whiteSpace=wrap;html=1;" parent="1" vertex="1">
          <mxGeometry x="580" y="100" width="120" height="100" as="geometry" />
        </mxCell>
        <mxCell id="1Rf1SUsvrOOBmwsHc8l4-3" value="&lt;font style=&quot;font-size: 18px;&quot;&gt;DEMUX&lt;/font&gt;" style="shape=trapezoid;perimeter=trapezoidPerimeter;whiteSpace=wrap;html=1;fixedSize=1;rotation=-90;" parent="1" vertex="1">
          <mxGeometry x="290.37" y="171.62" width="211.25" height="60" as="geometry" />
        </mxCell>
        <mxCell id="1Rf1SUsvrOOBmwsHc8l4-4" value="" style="edgeStyle=orthogonalEdgeStyle;rounded=0;orthogonalLoop=1;jettySize=auto;html=1;strokeWidth=3;entryX=0;entryY=0.5;entryDx=0;entryDy=0;exitX=0.75;exitY=1;exitDx=0;exitDy=0;" parent="1" source="1Rf1SUsvrOOBmwsHc8l4-3" target="1Rf1SUsvrOOBmwsHc8l4-2" edge="1">
          <mxGeometry relative="1" as="geometry">
            <mxPoint x="350" y="110" as="targetPoint" />
            <mxPoint x="350" y="40" as="sourcePoint" />
          </mxGeometry>
        </mxCell>
        <mxCell id="1Rf1SUsvrOOBmwsHc8l4-6" value="" style="edgeStyle=orthogonalEdgeStyle;rounded=0;orthogonalLoop=1;jettySize=auto;html=1;strokeWidth=3;entryX=1;entryY=0.5;entryDx=0;entryDy=0;" parent="1" target="1Rf1SUsvrOOBmwsHc8l4-3" edge="1">
          <mxGeometry relative="1" as="geometry">
            <mxPoint x="419" y="362" as="targetPoint" />
            <mxPoint x="396" y="50" as="sourcePoint" />
          </mxGeometry>
        </mxCell>
        <mxCell id="1Rf1SUsvrOOBmwsHc8l4-15" value="" style="swimlane;startSize=0;" parent="1" vertex="1">
          <mxGeometry x="15" y="-145" width="1670" height="915" as="geometry" />
        </mxCell>
        <mxCell id="1Rf1SUsvrOOBmwsHc8l4-16" value="&lt;font style=&quot;font-size: 36px;&quot;&gt;&lt;b&gt;Digital Video Motion Detector&lt;/b&gt;&lt;/font&gt;" style="text;html=1;align=center;verticalAlign=middle;whiteSpace=wrap;rounded=0;" parent="1Rf1SUsvrOOBmwsHc8l4-15" vertex="1">
          <mxGeometry x="560" y="40" width="530" height="30" as="geometry" />
        </mxCell>
        <mxCell id="1Rf1SUsvrOOBmwsHc8l4-26" value="" style="edgeStyle=orthogonalEdgeStyle;rounded=0;orthogonalLoop=1;jettySize=auto;html=1;strokeWidth=3;entryX=-0.032;entryY=0.069;entryDx=0;entryDy=0;entryPerimeter=0;" parent="1" edge="1">
          <mxGeometry relative="1" as="geometry">
            <mxPoint x="917.0879999999997" y="160.01999999999998" as="targetPoint" />
            <mxPoint x="700" y="160" as="sourcePoint" />
          </mxGeometry>
        </mxCell>
        <mxCell id="1Rf1SUsvrOOBmwsHc8l4-27" value="" style="edgeStyle=orthogonalEdgeStyle;rounded=0;orthogonalLoop=1;jettySize=auto;html=1;strokeWidth=3;entryX=-0.032;entryY=0.069;entryDx=0;entryDy=0;entryPerimeter=0;" parent="1" edge="1">
          <mxGeometry relative="1" as="geometry">
            <mxPoint x="917" y="270.66" as="targetPoint" />
            <mxPoint x="700" y="270.66" as="sourcePoint" />
          </mxGeometry>
        </mxCell>
        <mxCell id="1Rf1SUsvrOOBmwsHc8l4-17" value="&lt;font style=&quot;font-size: 18px;&quot;&gt;AXI LITE&lt;/font&gt;&lt;div&gt;&lt;font size=&quot;3&quot;&gt;Interface&lt;/font&gt;&lt;/div&gt;&lt;div&gt;&lt;font size=&quot;3&quot;&gt;(Slave)&lt;/font&gt;&lt;/div&gt;" style="whiteSpace=wrap;html=1;" parent="1" vertex="1">
          <mxGeometry x="50" y="610" width="75" height="131" as="geometry" />
        </mxCell>
        <mxCell id="1Rf1SUsvrOOBmwsHc8l4-18" value="&lt;font style=&quot;font-size: 24px;&quot;&gt;Control&lt;/font&gt;" style="rounded=0;whiteSpace=wrap;html=1;" parent="1" vertex="1">
          <mxGeometry x="160" y="645.5" width="1470" height="60" as="geometry" />
        </mxCell>
        <mxCell id="1Rf1SUsvrOOBmwsHc8l4-19" value="" style="endArrow=classic;startArrow=classic;html=1;rounded=0;exitX=1;exitY=0.5;exitDx=0;exitDy=0;entryX=0;entryY=0.5;entryDx=0;entryDy=0;strokeWidth=3;" parent="1" source="1Rf1SUsvrOOBmwsHc8l4-17" target="1Rf1SUsvrOOBmwsHc8l4-18" edge="1">
          <mxGeometry width="50" height="50" relative="1" as="geometry">
            <mxPoint x="330" y="365.5" as="sourcePoint" />
            <mxPoint x="380" y="315.5" as="targetPoint" />
          </mxGeometry>
        </mxCell>
        <mxCell id="Ip_KtgX3UZN3IFbfJMku-1" value="" style="edgeStyle=orthogonalEdgeStyle;rounded=0;orthogonalLoop=1;jettySize=auto;html=1;strokeWidth=3;entryX=0;entryY=0.5;entryDx=0;entryDy=0;exitX=0.75;exitY=1;exitDx=0;exitDy=0;" edge="1" parent="1">
          <mxGeometry relative="1" as="geometry">
            <mxPoint x="580" y="270" as="targetPoint" />
            <mxPoint x="426" y="271" as="sourcePoint" />
          </mxGeometry>
        </mxCell>
      </root>
    </mxGraphModel>
  </diagram>
</mxfile>
